<svg width="100" height="100" viewBox="0 0 100 100" xmlns="http://www.w3.org/2000/svg">
  <defs>
    <linearGradient id="logoGradient" x1="0%" y1="0%" x2="100%" y2="100%">
      <stop offset="0%" stop-color="#008793"/>
      <stop offset="50%" stop-color="#05C3B8"/>
      <stop offset="100%" stop-color="#A8EB12"/>
    </linearGradient>
    <linearGradient id="textGradient" x1="0%" y1="0%" x2="100%" y2="0%">
      <stop offset="0%" stop-color="#FFFFFF"/>
      <stop offset="100%" stop-color="#E0FFE0"/>
    </linearGradient>
  </defs>
  
  <rect x="5" y="5" width="90" height="90" rx="20" fill="url(#logoGradient)"/>
  
  <!-- H -->
  <rect x="20" y="25" width="8" height="50" fill="url(#textGradient)" rx="2"/>
  <rect x="42" y="25" width="8" height="50" fill="url(#textGradient)" rx="2"/>
  <rect x="20" y="47" width="30" height="6" fill="url(#textGradient)" rx="2"/>
  
  <!-- 3 -->
  <path d="M 60 30 Q 75 30 75 42 Q 75 47 70 49 Q 75 51 75 58 Q 75 70 60 70 L 58 70 L 58 64 L 60 64 Q 68 64 68 58 Q 68 52 60 52 L 58 52 L 58 46 L 60 46 Q 68 46 68 42 Q 68 36 60 36 L 58 36 L 58 30 Z" fill="url(#textGradient)"/>
  
  <circle cx="15" cy="15" r="3" fill="#A8EB12" opacity="0.6"/>
  <circle cx="85" cy="85" r="3" fill="#A8EB12" opacity="0.6"/>
</svg>